<svg xmlns="http://www.w3.org/2000/svg" xmlns:xlink="http://www.w3.org/1999/xlink" viewBox="0 0 977.37 1158.87"><defs><style>.cls-1{fill:url(#linear-gradient);}.cls-2{fill:url(#linear-gradient-2);}.cls-3{fill:url(#linear-gradient-3);}</style><linearGradient id="linear-gradient" x1="957.9" y1="1056.68" x2="633.47" y2="1006.46" gradientUnits="userSpaceOnUse"><stop offset="0" stop-color="#272361"/><stop offset="1" stop-color="#1261ae"/></linearGradient><linearGradient id="linear-gradient-2" x1="501.81" y1="620.53" x2="503.4" y2="913.87" gradientUnits="userSpaceOnUse"><stop offset="0" stop-color="#1261ae"/><stop offset="1" stop-color="#272361"/></linearGradient><linearGradient id="linear-gradient-3" x1="334.47" y1="357.06" x2="438.1" y2="260.61" gradientUnits="userSpaceOnUse"><stop offset="0" stop-color="#2e368f"/><stop offset="1" stop-color="#1261ae"/></linearGradient></defs><g id="Layer_2" data-name="Layer 2"><g id="Layer_1-2" data-name="Layer 1"><path class="cls-1" d="M932.77,1082.54c-6,7.47-58,70.34-143.49,75.93-35.73,2.35-62.87-6.29-78.49-11.42C677.12,1136,642,1116.35,533.7,1003.37c-18.47-19.29-42.33-44.65-69.64-75.07l323.44-.75,188.31-.44C977.54,940.36,986.15,1015.9,932.77,1082.54Z"/><path class="cls-2" d="M788.37,928.09l-323.44-.45L280.47,731.19l-37.68-40.13A156.19,156.19,0,0,1,220.41,640c-1.2-5.05-15.9-71.81,24.51-127.82,7.94-11,19-26.44,40-36.81a97.13,97.13,0,0,1,40.68-9.81q114.6,114.57,229.21,229.12Q671.59,811.39,788.37,928.09Z"/><path class="cls-3" d="M899.17,361.86a337.06,337.06,0,0,1-20.35,99.68c-10.21,27.89-59.45,152.92-190.11,208-52.21,22-100.56,25.76-133.86,25.06Q440.24,580.1,325.64,465.52H506.19a160.38,160.38,0,0,0,31.45,0c77.83-7.63,131.41-71.65,127.57-126.35C661.79,290.33,612,239.89,544,232.05a159.24,159.24,0,0,0-35-.22H509l-262.25-1.66h0c-12.52-.11-144.33-3.51-211.62-108.6C4.73,74.13.28,26,0,0H532.89C675.41,7,800.52,75.7,857.3,181,903.76,267,899.17,361.86,899.17,361.86Z"/></g></g></svg>